<svg width="1229" height="301" viewBox="0 0 1229 301" fill="none" xmlns="http://www.w3.org/2000/svg">
<path d="M147.625 90.25V202.75C147.625 208.313 149.275 213.75 152.365 218.375C155.455 223.001 159.848 226.605 164.987 228.734C170.126 230.863 175.781 231.42 181.237 230.335C186.693 229.249 191.704 226.571 195.637 222.637C199.571 218.704 202.249 213.693 203.335 208.237C204.42 202.781 203.863 197.126 201.734 191.987C199.605 186.848 196.001 182.455 191.375 179.365C186.75 176.275 181.313 174.625 175.75 174.625H63.25C57.6874 174.625 52.2497 176.275 47.6246 179.365C42.9995 182.455 39.3946 186.848 37.2659 191.987C35.1372 197.126 34.5802 202.781 35.6654 208.237C36.7506 213.693 39.4293 218.704 43.3626 222.637C47.296 226.571 52.3074 229.249 57.7631 230.335C63.2188 231.42 68.8738 230.863 74.013 228.734C79.1521 226.605 83.5447 223.001 86.6351 218.375C89.7255 213.75 91.375 208.313 91.375 202.75V90.25C91.375 84.6874 89.7255 79.2497 86.6351 74.6246C83.5447 69.9995 79.1521 66.3946 74.013 64.2659C68.8738 62.1372 63.2188 61.5802 57.7631 62.6654C52.3074 63.7506 47.296 66.4293 43.3626 70.3626C39.4293 74.296 36.7506 79.3074 35.6654 84.7631C34.5802 90.2188 35.1372 95.8738 37.2659 101.013C39.3946 106.152 42.9995 110.545 47.6246 113.635C52.2497 116.726 57.6874 118.375 63.25 118.375H175.75C181.313 118.375 186.75 116.726 191.375 113.635C196.001 110.545 199.605 106.152 201.734 101.013C203.863 95.8738 204.42 90.2188 203.335 84.7631C202.249 79.3074 199.571 74.296 195.637 70.3626C191.704 66.4293 186.693 63.7506 181.237 62.6654C175.781 61.5802 170.126 62.1372 164.987 64.2659C159.848 66.3946 155.455 69.9995 152.365 74.6246C149.275 79.2497 147.625 84.6874 147.625 90.25Z" stroke="black" stroke-width="13" stroke-linecap="round" stroke-linejoin="round"/>
<path d="M275.943 77.2614C275.67 74.5114 274.5 72.375 272.432 70.8523C270.364 69.3295 267.557 68.5682 264.011 68.5682C261.602 68.5682 259.568 68.9091 257.909 69.5909C256.25 70.25 254.977 71.1705 254.091 72.3523C253.227 73.5341 252.795 74.875 252.795 76.375C252.75 77.625 253.011 78.7159 253.58 79.6477C254.17 80.5795 254.977 81.3864 256 82.0682C257.023 82.7273 258.205 83.3068 259.545 83.8068C260.886 84.2841 262.318 84.6932 263.841 85.0341L270.114 86.5341C273.159 87.2159 275.955 88.125 278.5 89.2614C281.045 90.3977 283.25 91.7955 285.114 93.4545C286.977 95.1136 288.42 97.0682 289.443 99.3182C290.489 101.568 291.023 104.148 291.045 107.057C291.023 111.33 289.932 115.034 287.773 118.17C285.636 121.284 282.545 123.705 278.5 125.432C274.477 127.136 269.625 127.989 263.943 127.989C258.307 127.989 253.398 127.125 249.216 125.398C245.057 123.67 241.807 121.114 239.466 117.727C237.148 114.318 235.932 110.102 235.818 105.08H250.102C250.261 107.42 250.932 109.375 252.114 110.943C253.318 112.489 254.92 113.659 256.92 114.455C258.943 115.227 261.227 115.614 263.773 115.614C266.273 115.614 268.443 115.25 270.284 114.523C272.148 113.795 273.591 112.784 274.614 111.489C275.636 110.193 276.148 108.705 276.148 107.023C276.148 105.455 275.682 104.136 274.75 103.068C273.841 102 272.5 101.091 270.727 100.341C268.977 99.5909 266.83 98.9091 264.284 98.2955L256.682 96.3864C250.795 94.9545 246.148 92.7159 242.739 89.6705C239.33 86.625 237.636 82.5227 237.659 77.3636C237.636 73.1364 238.761 69.4432 241.034 66.2841C243.33 63.125 246.477 60.6591 250.477 58.8864C254.477 57.1136 259.023 56.2273 264.114 56.2273C269.295 56.2273 273.818 57.1136 277.682 58.8864C281.568 60.6591 284.591 63.125 286.75 66.2841C288.909 69.4432 290.023 73.1023 290.091 77.2614H275.943ZM324.361 128.023C318.997 128.023 314.384 126.886 310.52 124.614C306.679 122.318 303.724 119.136 301.656 115.068C299.611 111 298.588 106.318 298.588 101.023C298.588 95.6591 299.622 90.9545 301.69 86.9091C303.781 82.8409 306.747 79.6705 310.588 77.3977C314.429 75.1023 318.997 73.9545 324.293 73.9545C328.861 73.9545 332.861 74.7841 336.293 76.4432C339.724 78.1023 342.44 80.4318 344.44 83.4318C346.44 86.4318 347.543 89.9545 347.747 94H334.043C333.656 91.3864 332.634 89.2841 330.974 87.6932C329.338 86.0795 327.19 85.2727 324.531 85.2727C322.281 85.2727 320.315 85.8864 318.634 87.1136C316.974 88.3182 315.679 90.0795 314.747 92.3977C313.815 94.7159 313.349 97.5227 313.349 100.818C313.349 104.159 313.804 107 314.713 109.341C315.645 111.682 316.952 113.466 318.634 114.693C320.315 115.92 322.281 116.534 324.531 116.534C326.19 116.534 327.679 116.193 328.997 115.511C330.338 114.83 331.44 113.841 332.304 112.545C333.19 111.227 333.77 109.648 334.043 107.807H347.747C347.52 111.807 346.429 115.33 344.474 118.375C342.543 121.398 339.872 123.761 336.463 125.466C333.054 127.17 329.02 128.023 324.361 128.023ZM371.568 96.7273V127H357.045V57.1818H371.159V83.875H371.773C372.955 80.7841 374.864 78.3636 377.5 76.6136C380.136 74.8409 383.443 73.9545 387.42 73.9545C391.057 73.9545 394.227 74.75 396.932 76.3409C399.659 77.9091 401.773 80.1705 403.273 83.125C404.795 86.0568 405.545 89.5682 405.523 93.6591V127H391V96.25C391.023 93.0227 390.205 90.5114 388.545 88.7159C386.909 86.9205 384.614 86.0227 381.659 86.0227C379.682 86.0227 377.932 86.4432 376.409 87.2841C374.909 88.125 373.727 89.3523 372.864 90.9659C372.023 92.5568 371.591 94.4773 371.568 96.7273ZM440.611 128.023C435.315 128.023 430.736 126.898 426.872 124.648C423.031 122.375 420.065 119.216 417.974 115.17C415.884 111.102 414.838 106.386 414.838 101.023C414.838 95.6136 415.884 90.8864 417.974 86.8409C420.065 82.7727 423.031 79.6136 426.872 77.3636C430.736 75.0909 435.315 73.9545 440.611 73.9545C445.906 73.9545 450.474 75.0909 454.315 77.3636C458.179 79.6136 461.156 82.7727 463.247 86.8409C465.338 90.8864 466.384 95.6136 466.384 101.023C466.384 106.386 465.338 111.102 463.247 115.17C461.156 119.216 458.179 122.375 454.315 124.648C450.474 126.898 445.906 128.023 440.611 128.023ZM440.679 116.773C443.088 116.773 445.099 116.091 446.713 114.727C448.327 113.341 449.543 111.455 450.361 109.068C451.202 106.682 451.622 103.966 451.622 100.92C451.622 97.875 451.202 95.1591 450.361 92.7727C449.543 90.3864 448.327 88.5 446.713 87.1136C445.099 85.7273 443.088 85.0341 440.679 85.0341C438.247 85.0341 436.202 85.7273 434.543 87.1136C432.906 88.5 431.668 90.3864 430.827 92.7727C430.009 95.1591 429.599 97.875 429.599 100.92C429.599 103.966 430.009 106.682 430.827 109.068C431.668 111.455 432.906 113.341 434.543 114.727C436.202 116.091 438.247 116.773 440.679 116.773ZM499.486 128.023C494.19 128.023 489.611 126.898 485.747 124.648C481.906 122.375 478.94 119.216 476.849 115.17C474.759 111.102 473.713 106.386 473.713 101.023C473.713 95.6136 474.759 90.8864 476.849 86.8409C478.94 82.7727 481.906 79.6136 485.747 77.3636C489.611 75.0909 494.19 73.9545 499.486 73.9545C504.781 73.9545 509.349 75.0909 513.19 77.3636C517.054 79.6136 520.031 82.7727 522.122 86.8409C524.213 90.8864 525.259 95.6136 525.259 101.023C525.259 106.386 524.213 111.102 522.122 115.17C520.031 119.216 517.054 122.375 513.19 124.648C509.349 126.898 504.781 128.023 499.486 128.023ZM499.554 116.773C501.963 116.773 503.974 116.091 505.588 114.727C507.202 113.341 508.418 111.455 509.236 109.068C510.077 106.682 510.497 103.966 510.497 100.92C510.497 97.875 510.077 95.1591 509.236 92.7727C508.418 90.3864 507.202 88.5 505.588 87.1136C503.974 85.7273 501.963 85.0341 499.554 85.0341C497.122 85.0341 495.077 85.7273 493.418 87.1136C491.781 88.5 490.543 90.3864 489.702 92.7727C488.884 95.1591 488.474 97.875 488.474 100.92C488.474 103.966 488.884 106.682 489.702 109.068C490.543 111.455 491.781 113.341 493.418 114.727C495.077 116.091 497.122 116.773 499.554 116.773ZM549.224 57.1818V127H534.702V57.1818H549.224ZM583.349 57.1818H601.554L620.781 104.091H621.599L640.827 57.1818H659.031V127H644.713V81.5568H644.134L626.065 126.659H616.315L598.247 81.3864H597.668V127H583.349V57.1818ZM685.852 127.989C682.511 127.989 679.534 127.409 676.92 126.25C674.307 125.068 672.239 123.33 670.716 121.034C669.216 118.716 668.466 115.83 668.466 112.375C668.466 109.466 669 107.023 670.068 105.045C671.136 103.068 672.591 101.477 674.432 100.273C676.273 99.0682 678.364 98.1591 680.705 97.5455C683.068 96.9318 685.545 96.5 688.136 96.25C691.182 95.9318 693.636 95.6364 695.5 95.3636C697.364 95.0682 698.716 94.6364 699.557 94.0682C700.398 93.5 700.818 92.6591 700.818 91.5455V91.3409C700.818 89.1818 700.136 87.5114 698.773 86.3295C697.432 85.1477 695.523 84.5568 693.045 84.5568C690.432 84.5568 688.352 85.1364 686.807 86.2955C685.261 87.4318 684.239 88.8636 683.739 90.5909L670.307 89.5C670.989 86.3182 672.33 83.5682 674.33 81.25C676.33 78.9091 678.909 77.1136 682.068 75.8636C685.25 74.5909 688.932 73.9545 693.114 73.9545C696.023 73.9545 698.807 74.2955 701.466 74.9773C704.148 75.6591 706.523 76.7159 708.591 78.1477C710.682 79.5795 712.33 81.4205 713.534 83.6705C714.739 85.8977 715.341 88.5682 715.341 91.6818V127H701.568V119.739H701.159C700.318 121.375 699.193 122.818 697.784 124.068C696.375 125.295 694.682 126.261 692.705 126.966C690.727 127.648 688.443 127.989 685.852 127.989ZM690.011 117.966C692.148 117.966 694.034 117.545 695.67 116.705C697.307 115.841 698.591 114.682 699.523 113.227C700.455 111.773 700.92 110.125 700.92 108.284V102.727C700.466 103.023 699.841 103.295 699.045 103.545C698.273 103.773 697.398 103.989 696.42 104.193C695.443 104.375 694.466 104.545 693.489 104.705C692.511 104.841 691.625 104.966 690.83 105.08C689.125 105.33 687.636 105.727 686.364 106.273C685.091 106.818 684.102 107.557 683.398 108.489C682.693 109.398 682.341 110.534 682.341 111.898C682.341 113.875 683.057 115.386 684.489 116.432C685.943 117.455 687.784 117.966 690.011 117.966ZM741.131 96.7273V127H726.608V74.6364H740.449V83.875H741.062C742.222 80.8295 744.165 78.4205 746.892 76.6477C749.619 74.8523 752.926 73.9545 756.812 73.9545C760.449 73.9545 763.619 74.75 766.324 76.3409C769.028 77.9318 771.131 80.2045 772.631 83.1591C774.131 86.0909 774.881 89.5909 774.881 93.6591V127H760.358V96.25C760.381 93.0455 759.563 90.5455 757.903 88.75C756.244 86.9318 753.96 86.0227 751.051 86.0227C749.097 86.0227 747.369 86.4432 745.869 87.2841C744.392 88.125 743.233 89.3523 742.392 90.9659C741.574 92.5568 741.153 94.4773 741.131 96.7273ZM801.259 127.989C797.918 127.989 794.94 127.409 792.327 126.25C789.713 125.068 787.645 123.33 786.122 121.034C784.622 118.716 783.872 115.83 783.872 112.375C783.872 109.466 784.406 107.023 785.474 105.045C786.543 103.068 787.997 101.477 789.838 100.273C791.679 99.0682 793.77 98.1591 796.111 97.5455C798.474 96.9318 800.952 96.5 803.543 96.25C806.588 95.9318 809.043 95.6364 810.906 95.3636C812.77 95.0682 814.122 94.6364 814.963 94.0682C815.804 93.5 816.224 92.6591 816.224 91.5455V91.3409C816.224 89.1818 815.543 87.5114 814.179 86.3295C812.838 85.1477 810.929 84.5568 808.452 84.5568C805.838 84.5568 803.759 85.1364 802.213 86.2955C800.668 87.4318 799.645 88.8636 799.145 90.5909L785.713 89.5C786.395 86.3182 787.736 83.5682 789.736 81.25C791.736 78.9091 794.315 77.1136 797.474 75.8636C800.656 74.5909 804.338 73.9545 808.52 73.9545C811.429 73.9545 814.213 74.2955 816.872 74.9773C819.554 75.6591 821.929 76.7159 823.997 78.1477C826.088 79.5795 827.736 81.4205 828.94 83.6705C830.145 85.8977 830.747 88.5682 830.747 91.6818V127H816.974V119.739H816.565C815.724 121.375 814.599 122.818 813.19 124.068C811.781 125.295 810.088 126.261 808.111 126.966C806.134 127.648 803.849 127.989 801.259 127.989ZM805.418 117.966C807.554 117.966 809.44 117.545 811.077 116.705C812.713 115.841 813.997 114.682 814.929 113.227C815.861 111.773 816.327 110.125 816.327 108.284V102.727C815.872 103.023 815.247 103.295 814.452 103.545C813.679 103.773 812.804 103.989 811.827 104.193C810.849 104.375 809.872 104.545 808.895 104.705C807.918 104.841 807.031 104.966 806.236 105.08C804.531 105.33 803.043 105.727 801.77 106.273C800.497 106.818 799.509 107.557 798.804 108.489C798.099 109.398 797.747 110.534 797.747 111.898C797.747 113.875 798.463 115.386 799.895 116.432C801.349 117.455 803.19 117.966 805.418 117.966ZM865.605 147.727C860.901 147.727 856.866 147.08 853.503 145.784C850.162 144.511 847.503 142.773 845.526 140.568C843.548 138.364 842.264 135.886 841.673 133.136L855.105 131.33C855.514 132.375 856.162 133.352 857.048 134.261C857.935 135.17 859.105 135.898 860.56 136.443C862.037 137.011 863.832 137.295 865.946 137.295C869.105 137.295 871.707 136.523 873.753 134.977C875.821 133.455 876.855 130.898 876.855 127.307V117.727H876.241C875.605 119.182 874.651 120.557 873.378 121.852C872.105 123.148 870.469 124.205 868.469 125.023C866.469 125.841 864.082 126.25 861.31 126.25C857.378 126.25 853.798 125.341 850.571 123.523C847.366 121.682 844.81 118.875 842.901 115.102C841.014 111.307 840.071 106.511 840.071 100.716C840.071 94.7841 841.037 89.8295 842.969 85.8523C844.901 81.875 847.469 78.8977 850.673 76.9205C853.901 74.9432 857.435 73.9545 861.276 73.9545C864.207 73.9545 866.662 74.4545 868.639 75.4545C870.616 76.4318 872.207 77.6591 873.412 79.1364C874.639 80.5909 875.582 82.0227 876.241 83.4318H876.787V74.6364H891.207V127.511C891.207 131.966 890.116 135.693 887.935 138.693C885.753 141.693 882.73 143.943 878.866 145.443C875.026 146.966 870.605 147.727 865.605 147.727ZM865.912 115.341C868.253 115.341 870.23 114.761 871.844 113.602C873.48 112.42 874.73 110.739 875.594 108.557C876.48 106.352 876.923 103.716 876.923 100.648C876.923 97.5795 876.491 94.9205 875.628 92.6705C874.764 90.3977 873.514 88.6364 871.878 87.3864C870.241 86.1364 868.253 85.5114 865.912 85.5114C863.526 85.5114 861.514 86.1591 859.878 87.4545C858.241 88.7273 857.003 90.5 856.162 92.7727C855.321 95.0455 854.901 97.6705 854.901 100.648C854.901 103.67 855.321 106.284 856.162 108.489C857.026 110.67 858.264 112.364 859.878 113.568C861.514 114.75 863.526 115.341 865.912 115.341ZM926.628 128.023C921.241 128.023 916.605 126.932 912.719 124.75C908.855 122.545 905.878 119.432 903.787 115.409C901.696 111.364 900.651 106.58 900.651 101.057C900.651 95.6705 901.696 90.9432 903.787 86.875C905.878 82.8068 908.821 79.6364 912.616 77.3636C916.435 75.0909 920.912 73.9545 926.048 73.9545C929.503 73.9545 932.719 74.5114 935.696 75.625C938.696 76.7159 941.31 78.3636 943.537 80.5682C945.787 82.7727 947.537 85.5455 948.787 88.8864C950.037 92.2045 950.662 96.0909 950.662 100.545V104.534H906.446V95.5341H936.991C936.991 93.4432 936.537 91.5909 935.628 89.9773C934.719 88.3636 933.457 87.1023 931.844 86.1932C930.253 85.2614 928.401 84.7955 926.287 84.7955C924.082 84.7955 922.128 85.3068 920.423 86.3295C918.741 87.3295 917.423 88.6818 916.469 90.3864C915.514 92.0682 915.026 93.9432 915.003 96.0114V104.568C915.003 107.159 915.48 109.398 916.435 111.284C917.412 113.17 918.787 114.625 920.56 115.648C922.332 116.67 924.435 117.182 926.866 117.182C928.48 117.182 929.957 116.955 931.298 116.5C932.639 116.045 933.787 115.364 934.741 114.455C935.696 113.545 936.423 112.432 936.923 111.114L950.355 112C949.673 115.227 948.276 118.045 946.162 120.455C944.071 122.841 941.366 124.705 938.048 126.045C934.753 127.364 930.946 128.023 926.628 128.023ZM960.139 127V74.6364H973.98V83.875H974.594C975.685 80.8068 977.503 78.3864 980.048 76.6136C982.594 74.8409 985.639 73.9545 989.185 73.9545C992.776 73.9545 995.832 74.8523 998.355 76.6477C1000.88 78.4205 1002.56 80.8295 1003.4 83.875H1003.95C1005.01 80.875 1006.95 78.4773 1009.74 76.6818C1012.56 74.8636 1015.89 73.9545 1019.73 73.9545C1024.62 73.9545 1028.58 75.5114 1031.63 78.625C1034.7 81.7159 1036.23 86.1023 1036.23 91.7841V127H1021.74V94.6477C1021.74 91.7386 1020.97 89.5568 1019.42 88.1023C1017.88 86.6477 1015.95 85.9205 1013.63 85.9205C1010.99 85.9205 1008.93 86.7614 1007.46 88.4432C1005.98 90.1023 1005.24 92.2955 1005.24 95.0227V127H991.162V94.3409C991.162 91.7727 990.423 89.7273 988.946 88.2045C987.491 86.6818 985.571 85.9205 983.185 85.9205C981.571 85.9205 980.116 86.3295 978.821 87.1477C977.548 87.9432 976.537 89.0682 975.787 90.5227C975.037 91.9545 974.662 93.6364 974.662 95.5682V127H960.139ZM1071.57 128.023C1066.18 128.023 1061.54 126.932 1057.66 124.75C1053.79 122.545 1050.82 119.432 1048.72 115.409C1046.63 111.364 1045.59 106.58 1045.59 101.057C1045.59 95.6705 1046.63 90.9432 1048.72 86.875C1050.82 82.8068 1053.76 79.6364 1057.55 77.3636C1061.37 75.0909 1065.85 73.9545 1070.99 73.9545C1074.44 73.9545 1077.66 74.5114 1080.63 75.625C1083.63 76.7159 1086.25 78.3636 1088.47 80.5682C1090.72 82.7727 1092.47 85.5455 1093.72 88.8864C1094.97 92.2045 1095.6 96.0909 1095.6 100.545V104.534H1051.38V95.5341H1081.93C1081.93 93.4432 1081.47 91.5909 1080.57 89.9773C1079.66 88.3636 1078.39 87.1023 1076.78 86.1932C1075.19 85.2614 1073.34 84.7955 1071.22 84.7955C1069.02 84.7955 1067.07 85.3068 1065.36 86.3295C1063.68 87.3295 1062.36 88.6818 1061.41 90.3864C1060.45 92.0682 1059.96 93.9432 1059.94 96.0114V104.568C1059.94 107.159 1060.42 109.398 1061.37 111.284C1062.35 113.17 1063.72 114.625 1065.5 115.648C1067.27 116.67 1069.37 117.182 1071.8 117.182C1073.42 117.182 1074.89 116.955 1076.24 116.5C1077.58 116.045 1078.72 115.364 1079.68 114.455C1080.63 113.545 1081.36 112.432 1081.86 111.114L1095.29 112C1094.61 115.227 1093.21 118.045 1091.1 120.455C1089.01 122.841 1086.3 124.705 1082.99 126.045C1079.69 127.364 1075.88 128.023 1071.57 128.023ZM1119.6 96.7273V127H1105.08V74.6364H1118.92V83.875H1119.53C1120.69 80.8295 1122.63 78.4205 1125.36 76.6477C1128.09 74.8523 1131.39 73.9545 1135.28 73.9545C1138.92 73.9545 1142.09 74.75 1144.79 76.3409C1147.5 77.9318 1149.6 80.2045 1151.1 83.1591C1152.6 86.0909 1153.35 89.5909 1153.35 93.6591V127H1138.83V96.25C1138.85 93.0455 1138.03 90.5455 1136.37 88.75C1134.71 86.9318 1132.43 86.0227 1129.52 86.0227C1127.57 86.0227 1125.84 86.4432 1124.34 87.2841C1122.86 88.125 1121.7 89.3523 1120.86 90.9659C1120.04 92.5568 1119.62 94.4773 1119.6 96.7273ZM1192.65 74.6364V85.5455H1161.11V74.6364H1192.65ZM1168.27 62.0909H1182.8V110.909C1182.8 112.25 1183 113.295 1183.41 114.045C1183.82 114.773 1184.39 115.284 1185.11 115.58C1185.86 115.875 1186.73 116.023 1187.7 116.023C1188.39 116.023 1189.07 115.966 1189.75 115.852C1190.43 115.716 1190.95 115.614 1191.32 115.545L1193.6 126.352C1192.88 126.58 1191.85 126.841 1190.53 127.136C1189.22 127.455 1187.61 127.648 1185.73 127.716C1182.23 127.852 1179.16 127.386 1176.52 126.318C1173.91 125.25 1171.88 123.591 1170.42 121.341C1168.97 119.091 1168.25 116.25 1168.27 112.818V62.0909ZM275.943 193.261C275.67 190.511 274.5 188.375 272.432 186.852C270.364 185.33 267.557 184.568 264.011 184.568C261.602 184.568 259.568 184.909 257.909 185.591C256.25 186.25 254.977 187.17 254.091 188.352C253.227 189.534 252.795 190.875 252.795 192.375C252.75 193.625 253.011 194.716 253.58 195.648C254.17 196.58 254.977 197.386 256 198.068C257.023 198.727 258.205 199.307 259.545 199.807C260.886 200.284 262.318 200.693 263.841 201.034L270.114 202.534C273.159 203.216 275.955 204.125 278.5 205.261C281.045 206.398 283.25 207.795 285.114 209.455C286.977 211.114 288.42 213.068 289.443 215.318C290.489 217.568 291.023 220.148 291.045 223.057C291.023 227.33 289.932 231.034 287.773 234.17C285.636 237.284 282.545 239.705 278.5 241.432C274.477 243.136 269.625 243.989 263.943 243.989C258.307 243.989 253.398 243.125 249.216 241.398C245.057 239.67 241.807 237.114 239.466 233.727C237.148 230.318 235.932 226.102 235.818 221.08H250.102C250.261 223.42 250.932 225.375 252.114 226.943C253.318 228.489 254.92 229.659 256.92 230.455C258.943 231.227 261.227 231.614 263.773 231.614C266.273 231.614 268.443 231.25 270.284 230.523C272.148 229.795 273.591 228.784 274.614 227.489C275.636 226.193 276.148 224.705 276.148 223.023C276.148 221.455 275.682 220.136 274.75 219.068C273.841 218 272.5 217.091 270.727 216.341C268.977 215.591 266.83 214.909 264.284 214.295L256.682 212.386C250.795 210.955 246.148 208.716 242.739 205.67C239.33 202.625 237.636 198.523 237.659 193.364C237.636 189.136 238.761 185.443 241.034 182.284C243.33 179.125 246.477 176.659 250.477 174.886C254.477 173.114 259.023 172.227 264.114 172.227C269.295 172.227 273.818 173.114 277.682 174.886C281.568 176.659 284.591 179.125 286.75 182.284C288.909 185.443 290.023 189.102 290.091 193.261H275.943ZM309.668 262.636C307.827 262.636 306.099 262.489 304.486 262.193C302.895 261.92 301.577 261.568 300.531 261.136L303.804 250.295C305.509 250.818 307.043 251.102 308.406 251.148C309.793 251.193 310.986 250.875 311.986 250.193C313.009 249.511 313.838 248.352 314.474 246.716L315.327 244.5L296.543 190.636H311.815L322.656 229.091H323.202L334.145 190.636H349.52L329.168 248.659C328.19 251.477 326.861 253.932 325.179 256.023C323.52 258.136 321.418 259.761 318.872 260.898C316.327 262.057 313.259 262.636 309.668 262.636ZM400.52 205.568L387.224 206.386C386.997 205.25 386.509 204.227 385.759 203.318C385.009 202.386 384.02 201.648 382.793 201.102C381.588 200.534 380.145 200.25 378.463 200.25C376.213 200.25 374.315 200.727 372.77 201.682C371.224 202.614 370.452 203.864 370.452 205.432C370.452 206.682 370.952 207.739 371.952 208.602C372.952 209.466 374.668 210.159 377.099 210.682L386.577 212.591C391.668 213.636 395.463 215.318 397.963 217.636C400.463 219.955 401.713 223 401.713 226.773C401.713 230.205 400.702 233.216 398.679 235.807C396.679 238.398 393.929 240.42 390.429 241.875C386.952 243.307 382.94 244.023 378.395 244.023C371.463 244.023 365.94 242.58 361.827 239.693C357.736 236.784 355.338 232.83 354.634 227.83L368.918 227.08C369.349 229.193 370.395 230.807 372.054 231.92C373.713 233.011 375.838 233.557 378.429 233.557C380.974 233.557 383.02 233.068 384.565 232.091C386.134 231.091 386.929 229.807 386.952 228.239C386.929 226.92 386.372 225.841 385.281 225C384.19 224.136 382.509 223.477 380.236 223.023L371.168 221.216C366.054 220.193 362.247 218.42 359.747 215.898C357.27 213.375 356.031 210.159 356.031 206.25C356.031 202.886 356.94 199.989 358.759 197.557C360.599 195.125 363.179 193.25 366.497 191.932C369.838 190.614 373.747 189.955 378.224 189.955C384.838 189.955 390.043 191.352 393.838 194.148C397.656 196.943 399.884 200.75 400.52 205.568ZM438.71 190.636V201.545H407.176V190.636H438.71ZM414.335 178.091H428.858V226.909C428.858 228.25 429.063 229.295 429.472 230.045C429.881 230.773 430.449 231.284 431.176 231.58C431.926 231.875 432.79 232.023 433.767 232.023C434.449 232.023 435.131 231.966 435.812 231.852C436.494 231.716 437.017 231.614 437.381 231.545L439.665 242.352C438.938 242.58 437.915 242.841 436.597 243.136C435.278 243.455 433.676 243.648 431.79 243.716C428.29 243.852 425.222 243.386 422.585 242.318C419.972 241.25 417.938 239.591 416.483 237.341C415.028 235.091 414.313 232.25 414.335 228.818V178.091ZM471.472 244.023C466.085 244.023 461.449 242.932 457.562 240.75C453.699 238.545 450.722 235.432 448.631 231.409C446.54 227.364 445.494 222.58 445.494 217.057C445.494 211.67 446.54 206.943 448.631 202.875C450.722 198.807 453.665 195.636 457.46 193.364C461.278 191.091 465.756 189.955 470.892 189.955C474.347 189.955 477.563 190.511 480.54 191.625C483.54 192.716 486.153 194.364 488.381 196.568C490.631 198.773 492.381 201.545 493.631 204.886C494.881 208.205 495.506 212.091 495.506 216.545V220.534H451.29V211.534H481.835C481.835 209.443 481.381 207.591 480.472 205.977C479.563 204.364 478.301 203.102 476.688 202.193C475.097 201.261 473.244 200.795 471.131 200.795C468.926 200.795 466.972 201.307 465.267 202.33C463.585 203.33 462.267 204.682 461.312 206.386C460.358 208.068 459.869 209.943 459.847 212.011V220.568C459.847 223.159 460.324 225.398 461.278 227.284C462.256 229.17 463.631 230.625 465.403 231.648C467.176 232.67 469.278 233.182 471.71 233.182C473.324 233.182 474.801 232.955 476.142 232.5C477.483 232.045 478.631 231.364 479.585 230.455C480.54 229.545 481.267 228.432 481.767 227.114L495.199 228C494.517 231.227 493.119 234.045 491.006 236.455C488.915 238.841 486.21 240.705 482.892 242.045C479.597 243.364 475.79 244.023 471.472 244.023ZM504.983 243V190.636H518.824V199.875H519.438C520.528 196.807 522.347 194.386 524.892 192.614C527.438 190.841 530.483 189.955 534.028 189.955C537.619 189.955 540.676 190.852 543.199 192.648C545.722 194.42 547.403 196.83 548.244 199.875H548.79C549.858 196.875 551.79 194.477 554.585 192.682C557.403 190.864 560.733 189.955 564.574 189.955C569.46 189.955 573.426 191.511 576.472 194.625C579.54 197.716 581.074 202.102 581.074 207.784V243H566.585V210.648C566.585 207.739 565.813 205.557 564.267 204.102C562.722 202.648 560.79 201.92 558.472 201.92C555.835 201.92 553.778 202.761 552.301 204.443C550.824 206.102 550.085 208.295 550.085 211.023V243H536.006V210.341C536.006 207.773 535.267 205.727 533.79 204.205C532.335 202.682 530.415 201.92 528.028 201.92C526.415 201.92 524.96 202.33 523.665 203.148C522.392 203.943 521.381 205.068 520.631 206.523C519.881 207.955 519.506 209.636 519.506 211.568V243H504.983Z" fill="black"/>
</svg>
